<svg width="261" height="306" viewBox="0 0 261 306" fill="none" xmlns="http://www.w3.org/2000/svg">
<path d="M130.687 66.0355C132.228 66.0355 133.768 66.4231 135.092 67.1985L199.44 104.854L254.659 72.538L130.687 0L6.71289 72.538L61.932 104.854L126.28 67.1985C127.605 66.4231 129.145 66.0355 130.687 66.0355Z" fill="#FF7400"/>
<path d="M64.6016 119.129V183.751L122.967 149.6V84.9734L64.6016 119.129Z" fill="#FF7400"/>
<path d="M0.904297 230.063L49.1592 258.297V193.676L0.904297 165.436V230.063Z" fill="#FF7400"/>
<path d="M0.904297 149.6L49.1592 177.841L49.1843 113.228L0.904297 84.9734V149.6Z" fill="#FF7400"/>
<path d="M185.909 193.228L130.688 160.917L75.4668 193.228L130.688 225.545L185.909 193.228Z" fill="#FF7400"/>
<path d="M196.773 119.129L138.407 84.9734V149.6L196.773 183.751V119.129Z" fill="#FF7400"/>
<path d="M212.215 177.841L260.47 149.6V84.9734L212.19 113.228L212.215 177.841Z" fill="#FF7400"/>
<path d="M203.758 198.617L135.093 238.802C133.768 239.577 132.228 239.965 130.688 239.965C129.147 239.965 127.606 239.577 126.282 238.802L64.6016 202.705V267.333L130.688 306L260.47 230.063V165.436L203.845 198.575C203.817 198.59 203.786 198.601 203.758 198.617Z" fill="#FF7400"/>
</svg>
